<?xml version="1.0" encoding="UTF-8"?><svg id="b" xmlns="http://www.w3.org/2000/svg" viewBox="0 0 433.518 58.59"><g id="c"><path d="m68.508,38.956c3.56,0,6.267.717,8.124,2.153,1.856,1.435,2.784,3.569,2.784,6.401,0,2.526-.66,4.611-1.98,6.258-1.321,1.645-3.206,2.86-5.655,3.646-2.45.784-5.396,1.177-8.841,1.177-5.436,0-9.311-.613-11.626-1.837-2.316-1.226-3.473-2.967-3.473-5.225,0-1.607.708-2.88,2.124-3.818,1.416-.938,3.732-1.426,6.947-1.464l-.172.976c-2.718-.307-4.699-1.042-5.942-2.21-1.244-1.167-1.866-2.707-1.866-4.622,0-1.952.784-3.502,2.354-4.65,1.569-1.148,3.579-1.76,6.028-1.837l3.789,1.722h-1.033c-1.378.039-2.335.211-2.871.517-.537.307-.804.709-.804,1.206,0,.536.22.938.66,1.206.439.268,1.138.402,2.095.402h9.358Zm-4.88-21.988c3.177,0,5.846.373,8.009,1.12,2.162.746,3.808,1.837,4.938,3.272,1.128,1.436,1.694,3.244,1.694,5.425,0,2.105-.565,3.885-1.694,5.339-1.129,1.455-2.775,2.546-4.938,3.272-2.163.728-4.832,1.091-8.009,1.091-4.785,0-8.411-.823-10.879-2.469-2.469-1.645-3.703-4.056-3.703-7.234,0-2.181.554-3.99,1.665-5.425,1.109-1.435,2.755-2.526,4.937-3.272,2.182-.747,4.841-1.12,7.98-1.12Zm-.574,34.389c1.722,0,3.147-.086,4.277-.258,1.128-.172,1.971-.431,2.526-.775.554-.345.832-.747.832-1.206,0-.383-.134-.68-.402-.89-.268-.21-.785-.315-1.55-.315h-10.736c-.537,0-.957.133-1.263.402-.307.267-.459.612-.459,1.033,0,.65.603,1.148,1.808,1.493,1.206.345,2.861.517,4.966.517Zm.574-28.131c-.996,0-1.79.287-2.382.861-.594.574-.89,1.455-.89,2.641,0,1.148.296,2.019.89,2.612.593.594,1.387.89,2.382.89s1.789-.296,2.383-.89c.593-.593.89-1.464.89-2.612,0-1.186-.297-2.067-.89-2.641-.594-.574-1.388-.861-2.383-.861Zm15.099-14.238l.804,7.406c-.344-.076-.651-.124-.918-.144-.268-.019-.537-.029-.804-.029-1.646,0-2.852.412-3.617,1.234-.766.824-1.148,1.79-1.148,2.899l-3.617-1.206c0-1.607.267-3.195.804-4.765.536-1.569,1.406-2.871,2.612-3.904,1.206-1.034,2.803-1.55,4.793-1.55h.517c.191,0,.382.02.574.058Z" fill="#14da62"/><path d="m82.344,46.247v-28.705h10.392l.344,6.717c.65-2.258,1.674-4.038,3.071-5.339,1.397-1.3,3.224-1.952,5.483-1.952.804,0,1.454.067,1.952.201.497.135.861.297,1.091.488l-1.034,9.415c-.383-.152-.881-.287-1.493-.402-.612-.115-1.32-.172-2.124-.172-1.148,0-2.182.21-3.1.631-.918.421-1.646,1.043-2.182,1.866-.537.824-.804,1.866-.804,3.129v14.123h-11.597Z" fill="#14da62"/><path d="m119.029,17.542v28.705h-11.597v-28.705h11.597Z" fill="#14da62"/><path d="m161.282,46.247h-12.056l-2.124-7.865h-11.54l-2.182,7.865h-11.712l12.745-37.891h14.066l12.802,37.891Zm-23.768-15.443h7.693l-3.847-14.123-3.847,14.123Z" fill="#14da62"/><path d="m173.281,46.821c-1.952,0-3.646-.335-5.081-1.005-1.436-.669-2.546-1.741-3.33-3.215-.785-1.473-1.177-3.396-1.177-5.77v-19.29h11.597v16.591c0,1.455.267,2.489.804,3.1.535.613,1.32.919,2.354.919.536,0,1.034-.105,1.493-.316.459-.21.852-.526,1.177-.947.325-.421.574-.976.746-1.665s.258-1.493.258-2.411v-15.271h11.597v28.705h-10.392l-.287-5.741c-.881,2.105-2.144,3.684-3.79,4.736-1.646,1.052-3.636,1.579-5.971,1.579Z" fill="#14da62"/><path d="m213.639,16.968c3.215,0,5.865.45,7.951,1.349,2.086.9,3.665,2.067,4.736,3.502,1.071,1.435,1.684,2.938,1.837,4.507l-10.736,3.272c-.115-1.569-.431-2.736-.947-3.502s-1.331-1.148-2.44-1.148c-.957,0-1.761.229-2.411.689-.651.459-1.129,1.206-1.436,2.239-.307,1.034-.459,2.412-.459,4.134,0,1.761.181,3.139.545,4.133.363.996.88,1.694,1.55,2.096.669.402,1.425.603,2.268.603.765,0,1.387-.163,1.866-.488.478-.325.87-.804,1.177-1.435.306-.632.497-1.387.574-2.268l10.391,3.272c-.153,1.646-.813,3.139-1.98,4.478-1.168,1.34-2.766,2.412-4.794,3.215-2.029.804-4.42,1.206-7.176,1.206-3.292,0-6.143-.583-8.554-1.751-2.411-1.167-4.268-2.861-5.569-5.081-1.302-2.219-1.952-4.917-1.952-8.095s.65-5.875,1.952-8.095c1.301-2.219,3.119-3.913,5.454-5.081,2.334-1.167,5.052-1.751,8.152-1.751Z" fill="#14da62"/><path d="m253.769,17.542v7.98h-24.112v-7.98h24.112Zm-7.808-9.473v27.155c0,1.34.296,2.296.89,2.871.593.574,1.483.861,2.669.861.841,0,1.569-.076,2.182-.23.612-.152,1.186-.402,1.722-.746l.747,6.774c-.918.651-2.163,1.158-3.732,1.521-1.57.363-3.1.545-4.593.545-2.45,0-4.526-.326-6.229-.976-1.704-.65-3.005-1.684-3.904-3.1-.9-1.416-1.349-3.31-1.349-5.684V11.284l11.597-3.215Z" fill="#14da62"/><path d="m269.039,17.542v28.705h-11.597v-28.705h11.597Z" fill="#14da62"/><path d="m289.017,16.968c3.138,0,5.875.584,8.21,1.751,2.334,1.168,4.152,2.861,5.454,5.081,1.301,2.22,1.952,4.918,1.952,8.095,0,3.139-.651,5.827-1.952,8.066-1.302,2.239-3.12,3.943-5.454,5.11-2.335,1.168-5.072,1.751-8.21,1.751-3.062,0-5.77-.583-8.124-1.751-2.354-1.167-4.191-2.871-5.511-5.11-1.32-2.239-1.98-4.927-1.98-8.066,0-3.177.66-5.875,1.98-8.095,1.32-2.219,3.158-3.913,5.511-5.081,2.354-1.167,5.061-1.751,8.124-1.751Zm0,7.98c-.842,0-1.56.211-2.153.631-.594.422-1.043,1.148-1.349,2.182-.307,1.034-.459,2.411-.459,4.134s.152,3.091.459,4.105c.306,1.014.755,1.742,1.349,2.181.593.44,1.311.661,2.153.661.88,0,1.608-.22,2.182-.661.574-.439,1.014-1.167,1.321-2.181.306-1.014.459-2.383.459-4.105s-.153-3.1-.459-4.134c-.307-1.033-.747-1.76-1.321-2.182-.574-.42-1.301-.631-2.182-.631Z" fill="#14da62"/><path d="m308.996,46.247v-28.705h10.449l.517,11.08-1.206-1.263c.306-2.219.938-4.105,1.895-5.655.957-1.55,2.191-2.727,3.703-3.531,1.512-.804,3.263-1.206,5.253-1.206,1.952,0,3.626.373,5.023,1.12,1.397.746,2.478,1.856,3.244,3.33.765,1.474,1.148,3.282,1.148,5.425v19.405h-11.597v-16.419c0-1.607-.258-2.707-.775-3.301-.517-.593-1.254-.89-2.21-.89-.727,0-1.388.182-1.98.545-.594.364-1.053.947-1.378,1.751-.326.804-.488,1.857-.488,3.158v15.156h-11.597Z" fill="#14da62"/><path d="m359.345,46.821c-3.33,0-6.191-.583-8.583-1.751-2.393-1.167-4.229-2.871-5.512-5.11-1.283-2.239-1.923-4.927-1.923-8.066s.64-5.827,1.923-8.066c1.282-2.239,3.09-3.941,5.425-5.109,2.334-1.167,5.052-1.751,8.152-1.751,3.138,0,5.808.584,8.009,1.751,2.201,1.168,3.875,2.794,5.023,4.88,1.148,2.086,1.723,4.488,1.723,7.205,0,.651-.02,1.302-.058,1.952-.039.651-.096,1.206-.172,1.665h-22.505v-5.052h17.453l-5.511,2.125c0-2.182-.287-3.847-.861-4.995-.574-1.148-1.607-1.723-3.1-1.723-.957,0-1.79.25-2.497.747-.709.498-1.216,1.273-1.521,2.325-.307,1.053-.459,2.479-.459,4.277,0,1.761.201,3.139.603,4.134.402.996.966,1.685,1.693,2.066.727.383,1.646.574,2.756.574,1.225,0,2.182-.249,2.871-.746.689-.497,1.186-1.186,1.493-2.067l9.3,2.756c-.459,1.761-1.388,3.234-2.784,4.42-1.397,1.187-3.053,2.077-4.966,2.669-1.914.593-3.904.89-5.97.89Z" fill="#14da62"/><path d="m392.642,46.821c-3.33,0-6.191-.583-8.583-1.751-2.393-1.167-4.229-2.871-5.512-5.11-1.283-2.239-1.923-4.927-1.923-8.066s.64-5.827,1.923-8.066c1.282-2.239,3.09-3.941,5.425-5.109,2.334-1.167,5.052-1.751,8.152-1.751,3.138,0,5.808.584,8.009,1.751,2.201,1.168,3.875,2.794,5.023,4.88,1.148,2.086,1.723,4.488,1.723,7.205,0,.651-.02,1.302-.058,1.952-.039.651-.096,1.206-.172,1.665h-22.505v-5.052h17.453l-5.511,2.125c0-2.182-.287-3.847-.861-4.995-.574-1.148-1.607-1.723-3.1-1.723-.957,0-1.79.25-2.497.747-.709.498-1.216,1.273-1.521,2.325-.307,1.053-.459,2.479-.459,4.277,0,1.761.201,3.139.603,4.134.402.996.966,1.685,1.693,2.066.727.383,1.646.574,2.756.574,1.225,0,2.182-.249,2.871-.746.689-.497,1.186-1.186,1.493-2.067l9.3,2.756c-.459,1.761-1.388,3.234-2.784,4.42-1.397,1.187-3.053,2.077-4.966,2.669-1.914.593-3.904.89-5.97.89Z" fill="#14da62"/><path d="m411.185,46.247v-28.705h10.392l.344,6.717c.65-2.258,1.674-4.038,3.071-5.339,1.397-1.3,3.224-1.952,5.483-1.952.804,0,1.454.067,1.952.201.497.135.861.297,1.091.488l-1.034,9.415c-.383-.152-.881-.287-1.493-.402-.612-.115-1.32-.172-2.124-.172-1.148,0-2.182.21-3.1.631-.918.421-1.646,1.043-2.182,1.866-.537.824-.804,1.866-.804,3.129v14.123h-11.597Z" fill="#14da62"/><path d="m107.432,13.39S119.368,14.664,119.368.013c0,0-11.175-.956-11.937,13.377Z" fill="#14da62"/><path d="m257.442,13.39s11.597,1.274,11.597-13.377c0,0-10.857-.956-11.597,13.377Z" fill="#14da62"/><path d="m39.117,46.009h-11.906l-2.097-7.767h-11.395l-2.154,7.767H0L12.585,8.593h13.889l12.642,37.417Zm-23.471-15.25h7.597l-3.799-13.946-3.799,13.946Z" fill="#15453f"/><path d="m47.108,46.009h-11.905l-2.097-7.767h-11.395l-2.154,7.767H7.991L20.577,8.593h13.89l12.642,37.417Zm-23.47-15.25h7.597l-3.799-13.946-3.799,13.946Z" fill="#14da62"/><path d="m26.917,20.194s8.636.949,8.636-9.962c0,0-8.085-.712-8.636,9.962Z" fill="#15453f"/><path d="m10.727,25.695s8.636.949,8.636-9.962c0,0-8.085-.712-8.636,9.962Z" fill="#14da62"/></g></svg>